<svg xmlns="http://www.w3.org/2000/svg" width="13" height="11.96" viewBox="0 0 13 11.96">
  <path d="M 1.114 6.063 v -0.163 c 1.005 -0.102 1.497 -0.615 1.497 -1.6 v -1.797 c 0 -1.094 0.39 -1.538 1.354 -1.538 h 0.273 v -0.965 h -0.376 c -1.612 0 -2.372 0.759 -2.372 2.352 v 1.524 c 0 1.094 -0.376 1.456 -1.49 1.456 v 1.299 c 1.114 0 1.49 0.362 1.49 1.456 v 1.524 c 0 1.593 0.759 2.352 2.372 2.352 h 0.376 v -0.964 h -0.273 c -0.964 0 -1.354 -0.444 -1.354 -1.538 v -1.798 c 0 -0.984 -0.492 -1.497 -1.497 -1.6 m 10.772 -0.163 v 0.163 c -1.005 0.103 -1.497 0.616 -1.497 1.6 v 1.798 c 0 1.094 -0.39 1.538 -1.354 1.538 h -0.273 v 0.964 h 0.376 c 1.613 0 2.372 -0.759 2.372 -2.352 v -1.524 c 0 -1.094 0.376 -1.456 1.49 -1.456 v -1.299 c -1.114 0 -1.49 -0.362 -1.49 -1.456 v -1.524 c 0 -1.593 -0.76 -2.352 -2.372 -2.352 h -0.376 v 0.964 h 0.273 c 0.964 0 1.354 0.444 1.354 1.538 v 1.798 c 0 0.984 0.492 1.497 1.497 1.6 m -1.886 4.1 v -1 h -1 v 1 h 1 m -2 0 v -1 h -1 v 1 h 1 m -2 0 v -1 h -1 v 1 h 1 m -2 0 v -1 h -1 v 1 h 1 m 5 -2 v -1 h -1 v 1 h 1 m -2 0 v -1 h -1 v 1 h 1 m -2 0 v -1 h -1 v 1 h 1 m 3 -2 v -1 h -1 v 1 h 1 m -2 0 v -1 h -1 v 1 h 1 m 1 -2 v -1 h -1 v 1 h 1"/>
</svg>